<svg xmlns="http://www.w3.org/2000/svg" viewBox="0 0 512 512">
  <defs>
    <linearGradient id="dropGrad" x1="0%" y1="0%" x2="100%" y2="100%">
      <stop offset="0%" style="stop-color:#60A5FA"/>
      <stop offset="50%" style="stop-color:#3B82F6"/>
      <stop offset="100%" style="stop-color:#2563EB"/>
    </linearGradient>
    <linearGradient id="shineGrad" x1="30%" y1="0%" x2="70%" y2="100%">
      <stop offset="0%" style="stop-color:rgba(255,255,255,0.4)"/>
      <stop offset="100%" style="stop-color:rgba(255,255,255,0)"/>
    </linearGradient>
  </defs>
  
  <!-- Background circle -->
  <circle cx="256" cy="256" r="240" fill="#0F172A"/>
  
  <!-- Water drop -->
  <path d="M256 56C256 56 96 224 96 320C96 408.366 167.634 480 256 480C344.366 480 416 408.366 416 320C416 224 256 56 256 56Z" fill="url(#dropGrad)"/>
  
  <!-- Shine effect -->
  <path d="M256 120C256 120 160 240 160 310C160 362.467 202.533 405 255 405C307.467 405 350 362.467 350 310C350 240 256 120 256 120Z" fill="url(#shineGrad)"/>
  
  <!-- Highlight -->
  <ellipse cx="200" cy="280" rx="35" ry="50" fill="rgba(255,255,255,0.25)"/>
  
  <!-- Waves -->
  <path d="M140 360C170 345 200 360 230 345C260 330 290 345 320 360C350 345 380 360 380 360" stroke="rgba(255,255,255,0.5)" stroke-width="12" stroke-linecap="round" fill="none"/>
</svg>
